# xmcd
#
# Track frame offsets: 
#        150
#        35626
#        73483
#        124333
#        156808
#        188759
#
# Disc length: 3711 seconds
#
# Revision: 2
# Processed by: cddbd v1.5.2PL0 Copyright (c) Steve Scherf et al.
# Submitted via: ExactAudioCopy v0.95b2
#
DISCID=570e7d06
DTITLE=Albert Ayler - Bells - Prophecy
DYEAR=1964
DGENRE=Jazz
TTITLE0=Spirits
TTITLE1=Wizard
TTITLE2=Ghosts, First Variation 
TTITLE3=Prophecy
TTITLE4=Ghosts, Second Variation
TTITLE5=Bells
EXTD=esp disk esp 4006 - 2005 release\n\nprophecy - original release-e
EXTD=sp 3030\nrecorded live cellar cafe nyc - june14 1964\n[tracks 01-
EXTD=05]\nalbert ayler-tenor saxophone\ngary peacok-bass\nsunny murray
EXTD=percussion\n\nbells - original release-esp 1010\nrecorded live t
EXTD=own hall nyc - may01 1965\n[track 06]\nalbert ayler-tenor saxopho
EXTD=ne\ndonald ayler-trumpet\ncharles tyler-alto saxophone\nlewis wor
EXTD=rell-bass\nsunny murray-drums\n\neac v0.95b3 - secure - flac 1.1.
EXTD=1\n\n.
EXTT0=
EXTT1=
EXTT2=
EXTT3=
EXTT4=
EXTT5=
PLAYORDER=
